<svg width="282" height="82" viewBox="0 0 282 82" fill="none" xmlns="http://www.w3.org/2000/svg">
<g clip-path="url(#clip0_66_176)">
<rect width="281.667" height="82" fill="#282964"/>
<path d="M2.13311 11.2909H6.23516V12.46H0.635864V0.892212H2.13311V11.2909Z" fill="#CFCECD"/>
<path d="M14.1623 3.89695C14.8494 4.26613 15.3827 4.80965 15.7724 5.507C16.1621 6.20435 16.3569 7.02476 16.3569 7.96823C16.3569 8.9117 16.1621 9.72186 15.7724 10.4192C15.3827 11.1166 14.8494 11.6498 14.1623 12.019C13.4752 12.3882 12.7061 12.5728 11.8447 12.5728C10.9832 12.5728 10.2038 12.3882 9.527 12.019C8.8399 11.6498 8.30664 11.1166 7.90669 10.4192C7.51699 9.72186 7.31189 8.90145 7.31189 7.96823C7.31189 7.03502 7.50674 6.20435 7.90669 5.507C8.29638 4.7994 8.8399 4.26613 9.527 3.89695C10.2141 3.52776 10.9832 3.34317 11.8447 3.34317C12.7061 3.34317 13.4855 3.52776 14.1623 3.89695ZM10.3577 5.01476C9.90644 5.25062 9.53725 5.61981 9.26036 6.12231C8.98348 6.62481 8.8399 7.24012 8.8399 7.96823C8.8399 8.68609 8.98348 9.3014 9.26036 9.79364C9.53725 10.2961 9.90644 10.6653 10.3577 10.9012C10.8089 11.1371 11.3114 11.2601 11.8447 11.2601C12.3779 11.2601 12.8804 11.1371 13.3316 10.9012C13.7829 10.6653 14.1521 10.2961 14.4289 9.79364C14.7058 9.29114 14.8494 8.68609 14.8494 7.96823C14.8494 7.24012 14.7058 6.62481 14.4289 6.12231C14.1521 5.61981 13.7829 5.25062 13.3316 5.01476C12.8804 4.77889 12.3779 4.65583 11.8447 4.65583C11.3114 4.64557 10.8089 4.76863 10.3577 5.01476Z" fill="#CFCECD"/>
<path d="M25.5968 4.31741C26.2429 4.99425 26.5608 5.95823 26.5608 7.22987V12.46H25.0635V7.35293C25.0635 6.46073 24.8379 5.76339 24.3765 5.28139C23.915 4.7994 23.2894 4.56354 22.51 4.56354C21.6896 4.56354 21.0333 4.83017 20.541 5.36344C20.0488 5.8967 19.8027 6.66584 19.8027 7.68109V12.46H18.3054V3.45598H19.8027V5.58905C20.0283 4.86093 20.4385 4.2969 21.023 3.89695C21.6076 3.50726 22.2844 3.30215 23.0535 3.30215C24.0996 3.30215 24.9507 3.64057 25.5968 4.31741Z" fill="#CFCECD"/>
<path d="M34.7752 3.98924C35.3802 4.43021 35.8109 5.01475 36.0468 5.74287V0.307648H37.5441V12.4497H36.0468V10.1628C35.8109 10.8909 35.3802 11.4857 34.7752 11.9165C34.1701 12.3574 33.4318 12.5728 32.5498 12.5728C31.7499 12.5728 31.0423 12.3882 30.4167 12.019C29.7912 11.6498 29.2989 11.1166 28.9503 10.4192C28.5913 9.72185 28.417 8.9117 28.417 7.96823C28.417 7.02476 28.5913 6.20435 28.9503 5.507C29.3092 4.80965 29.7912 4.26613 30.4167 3.89694C31.0423 3.52776 31.7499 3.34317 32.5498 3.34317C33.4215 3.33291 34.1701 3.55852 34.7752 3.98924ZM30.7757 5.54802C30.2219 6.13256 29.945 6.94272 29.945 7.96823C29.945 8.99374 30.2219 9.8039 30.7757 10.3884C31.3294 10.973 32.0678 11.2704 32.9805 11.2704C33.5753 11.2704 34.0983 11.1371 34.5598 10.8602C35.0213 10.5833 35.3905 10.2038 35.6469 9.70134C35.9135 9.19884 36.0366 8.62456 36.0366 7.96823C36.0366 7.3119 35.9032 6.72736 35.6469 6.22486C35.3802 5.72236 35.0213 5.33266 34.5598 5.06603C34.0983 4.79939 33.5651 4.66608 32.9805 4.66608C32.0576 4.66608 31.3192 4.96348 30.7757 5.54802Z" fill="#CFCECD"/>
<path d="M46.3225 3.89695C47.0096 4.26613 47.5428 4.80965 47.9325 5.507C48.3222 6.20435 48.5171 7.02476 48.5171 7.96823C48.5171 8.9117 48.3222 9.72186 47.9325 10.4192C47.5428 11.1166 47.0096 11.6498 46.3225 12.019C45.6354 12.3882 44.8662 12.5728 44.0048 12.5728C43.1434 12.5728 42.364 12.3882 41.6872 12.019C41.0001 11.6498 40.4668 11.1166 40.0668 10.4192C39.6771 9.72186 39.472 8.9117 39.472 7.96823C39.472 7.02476 39.6669 6.20435 40.0668 5.507C40.4565 4.80965 41.0001 4.26613 41.6872 3.89695C42.3742 3.52776 43.1434 3.34317 44.0048 3.34317C44.8662 3.34317 45.6456 3.52776 46.3225 3.89695ZM42.5178 5.01476C42.0666 5.25062 41.6974 5.61981 41.4205 6.12231C41.1436 6.62481 41.0001 7.24012 41.0001 7.96823C41.0001 8.68609 41.1436 9.3014 41.4205 9.79364C41.6974 10.2961 42.0666 10.6653 42.5178 10.9012C42.969 11.1371 43.4715 11.2601 44.0048 11.2601C44.5381 11.2601 45.0406 11.1371 45.4918 10.9012C45.943 10.6653 46.3122 10.2961 46.5891 9.79364C46.866 9.29114 47.0096 8.68609 47.0096 7.96823C47.0096 7.24012 46.866 6.62481 46.5891 6.12231C46.3122 5.61981 45.943 5.25062 45.4918 5.01476C45.0406 4.77889 44.5381 4.65583 44.0048 4.65583C43.4715 4.64557 42.969 4.76863 42.5178 5.01476Z" fill="#CFCECD"/>
<path d="M57.7569 4.31741C58.4029 4.99425 58.7208 5.95823 58.7208 7.22987V12.46H57.2236V7.35293C57.2236 6.46073 56.998 5.76339 56.5365 5.28139C56.075 4.7994 55.4494 4.56354 54.6701 4.56354C53.8496 4.56354 53.1933 4.83017 52.7011 5.36344C52.2088 5.8967 51.9627 6.66584 51.9627 7.68109V12.46H50.4655V3.45598H51.9627V5.58905C52.1883 4.86093 52.5985 4.2969 53.1831 3.89695C53.7676 3.50726 54.4444 3.30215 55.2136 3.30215C56.2596 3.30215 57.1108 3.64057 57.7569 4.31741Z" fill="#CFCECD"/>
<path d="M72.0012 10.9832C71.7346 11.455 71.3347 11.8344 70.8014 12.1318C70.2681 12.4292 69.6015 12.5728 68.8119 12.5728C68.0428 12.5728 67.3659 12.4292 66.7711 12.1523C66.1763 11.8754 65.6943 11.4857 65.3457 11.0038C64.9867 10.5218 64.7816 9.95773 64.7304 9.34242H66.3199C66.3507 9.67059 66.4635 9.9885 66.6583 10.3064C66.8532 10.6243 67.1198 10.8704 67.4787 11.0755C67.8377 11.2806 68.2684 11.3832 68.7709 11.3832C69.4272 11.3832 69.9297 11.2089 70.2784 10.8602C70.6271 10.5115 70.8014 10.0603 70.8014 9.51676C70.8014 9.04502 70.6783 8.66558 70.4322 8.36819C70.1861 8.07079 69.8784 7.84517 69.5195 7.67084C69.1606 7.50676 68.6683 7.32216 68.0428 7.11706C67.3146 6.88119 66.7198 6.64532 66.2789 6.44022C65.8379 6.22486 65.4585 5.90696 65.1508 5.47624C64.8432 5.04553 64.6791 4.48149 64.6791 3.78414C64.6791 3.17909 64.8227 2.65608 65.1098 2.1946C65.3969 1.73312 65.8174 1.38444 66.3609 1.12807C66.9044 0.871688 67.5403 0.748627 68.2684 0.748627C69.4067 0.748627 70.3091 1.02552 70.9757 1.57929C71.6423 2.13307 72.032 2.83042 72.1448 3.69185H70.5348C70.4425 3.23037 70.2066 2.83042 69.8271 2.48174C69.4477 2.13307 68.9247 1.95873 68.2684 1.95873C67.6633 1.95873 67.1813 2.11256 66.8224 2.43047C66.4635 2.73812 66.2789 3.17909 66.2789 3.75338C66.2789 4.2046 66.3917 4.56353 66.6276 4.84042C66.8634 5.11731 67.1506 5.34292 67.5095 5.49675C67.8582 5.65058 68.3402 5.83517 68.9555 6.03002C69.7041 6.25563 70.2989 6.48124 70.7604 6.6966C71.2116 6.91196 71.6013 7.25038 71.9192 7.69135C72.2371 8.13232 72.3909 8.72712 72.3909 9.45523C72.3909 10.009 72.2576 10.5115 72.0012 10.9832Z" fill="#CFCECD"/>
<path d="M81.2308 4.25588C81.9897 4.87119 82.4512 5.6916 82.6255 6.71711H81.0463C80.9334 6.07104 80.6361 5.56854 80.1541 5.19935C79.6721 4.83017 79.067 4.64558 78.3389 4.64558C77.8159 4.64558 77.3339 4.76864 76.9032 5.0045C76.4725 5.24037 76.1238 5.60956 75.8572 6.11206C75.5905 6.61456 75.4675 7.22987 75.4675 7.95798C75.4675 8.6861 75.6008 9.3014 75.8572 9.8039C76.1238 10.3064 76.4622 10.6756 76.9032 10.9115C77.3339 11.1473 77.8159 11.2704 78.3389 11.2704C79.0568 11.2704 79.6618 11.0858 80.1541 10.7166C80.6361 10.3474 80.9437 9.83467 81.0463 9.1886H82.6255C82.4512 10.2244 81.9897 11.055 81.2308 11.6601C80.472 12.2651 79.5285 12.5728 78.3799 12.5728C77.5185 12.5728 76.7494 12.3882 76.0828 12.019C75.4162 11.6498 74.8932 11.1166 74.5137 10.4192C74.1343 9.72186 73.9497 8.91171 73.9497 7.96824C73.9497 7.02476 74.1343 6.20435 74.5137 5.50701C74.8932 4.80966 75.4162 4.26614 76.0828 3.89695C76.7494 3.52777 77.5185 3.34317 78.3799 3.34317C79.5285 3.33292 80.4822 3.64057 81.2308 4.25588Z" fill="#CFCECD"/>
<path d="M91.8655 4.31743C92.5116 4.99427 92.8295 5.95825 92.8295 7.22989V12.46H91.3322V7.35295C91.3322 6.46075 91.1066 5.7634 90.6451 5.28141C90.1837 4.79942 89.5581 4.56355 88.7787 4.56355C87.9583 4.56355 87.302 4.83019 86.8097 5.36345C86.3175 5.89672 86.0713 6.66586 86.0713 7.68111V12.46H84.5741V0.317932H86.0713V5.58907C86.297 4.86095 86.7072 4.29692 87.2917 3.89697C87.8762 3.50728 88.5531 3.30217 89.3222 3.30217C90.3682 3.30217 91.2194 3.64059 91.8655 4.31743Z" fill="#CFCECD"/>
<path d="M101.536 3.89697C102.223 4.26615 102.756 4.80967 103.146 5.50702C103.536 6.20437 103.731 7.02478 103.731 7.96825C103.731 8.91172 103.536 9.72188 103.146 10.4192C102.756 11.1166 102.223 11.6498 101.536 12.019C100.849 12.3882 100.08 12.5728 99.2183 12.5728C98.3569 12.5728 97.5775 12.3882 96.9007 12.019C96.2136 11.6498 95.6803 11.1166 95.2803 10.4192C94.8907 9.72188 94.6855 8.91172 94.6855 7.96825C94.6855 7.02478 94.8804 6.20437 95.2803 5.50702C95.67 4.80967 96.2136 4.26615 96.9007 3.89697C97.5877 3.52778 98.3569 3.34319 99.2183 3.34319C100.08 3.33293 100.859 3.52778 101.536 3.89697ZM97.7313 5.01477C97.2801 5.25064 96.9109 5.61983 96.634 6.12233C96.3571 6.62483 96.2136 7.24014 96.2136 7.96825C96.2136 8.68611 96.3571 9.30142 96.634 9.79366C96.9109 10.2962 97.2801 10.6654 97.7313 10.9012C98.1825 11.1371 98.685 11.2601 99.2183 11.2601C99.7516 11.2601 100.254 11.1371 100.705 10.9012C101.157 10.6654 101.526 10.2962 101.803 9.79366C102.079 9.29116 102.223 8.68611 102.223 7.96825C102.223 7.24014 102.079 6.62483 101.803 6.12233C101.526 5.61983 101.157 5.25064 100.705 5.01477C100.254 4.77891 99.7516 4.65585 99.2183 4.65585C98.685 4.64559 98.1825 4.76865 97.7313 5.01477Z" fill="#CFCECD"/>
<path d="M112.089 3.89697C112.776 4.26615 113.309 4.80967 113.699 5.50702C114.088 6.20437 114.283 7.02478 114.283 7.96825C114.283 8.91172 114.088 9.72188 113.699 10.4192C113.309 11.1166 112.776 11.6498 112.089 12.019C111.401 12.3882 110.632 12.5728 109.771 12.5728C108.909 12.5728 108.13 12.3882 107.453 12.019C106.766 11.6498 106.233 11.1166 105.833 10.4192C105.443 9.72188 105.238 8.91172 105.238 7.96825C105.238 7.02478 105.433 6.20437 105.833 5.50702C106.223 4.80967 106.766 4.26615 107.453 3.89697C108.14 3.52778 108.909 3.34319 109.771 3.34319C110.632 3.33293 111.401 3.52778 112.089 3.89697ZM108.284 5.01477C107.833 5.25064 107.464 5.61983 107.187 6.12233C106.91 6.62483 106.766 7.24014 106.766 7.96825C106.766 8.68611 106.91 9.30142 107.187 9.79366C107.464 10.2962 107.833 10.6654 108.284 10.9012C108.735 11.1371 109.238 11.2601 109.771 11.2601C110.304 11.2601 110.807 11.1371 111.258 10.9012C111.709 10.6654 112.078 10.2962 112.355 9.79366C112.632 9.29116 112.776 8.68611 112.776 7.96825C112.776 7.24014 112.632 6.62483 112.355 6.12233C112.078 5.61983 111.709 5.25064 111.258 5.01477C110.807 4.77891 110.304 4.65585 109.771 4.65585C109.227 4.64559 108.735 4.76865 108.284 5.01477Z" fill="#CFCECD"/>
<path d="M117.729 0.317932V12.46H116.232V0.317932H117.729Z" fill="#CFCECD"/>
<path d="M130.579 3.89697C131.266 4.26615 131.799 4.80967 132.189 5.50702C132.578 6.20437 132.773 7.02478 132.773 7.96825C132.773 8.91172 132.578 9.72188 132.189 10.4192C131.799 11.1166 131.266 11.6498 130.579 12.019C129.891 12.3882 129.122 12.5728 128.261 12.5728C127.399 12.5728 126.62 12.3882 125.943 12.019C125.256 11.6498 124.723 11.1166 124.323 10.4192C123.933 9.72188 123.728 8.91172 123.728 7.96825C123.728 7.02478 123.923 6.20437 124.323 5.50702C124.713 4.80967 125.256 4.26615 125.943 3.89697C126.63 3.52778 127.399 3.34319 128.261 3.34319C129.122 3.33293 129.902 3.52778 130.579 3.89697ZM126.774 5.01477C126.323 5.25064 125.954 5.61983 125.677 6.12233C125.4 6.62483 125.256 7.24014 125.256 7.96825C125.256 8.68611 125.4 9.30142 125.677 9.79366C125.954 10.2962 126.323 10.6654 126.774 10.9012C127.225 11.1371 127.728 11.2601 128.261 11.2601C128.794 11.2601 129.297 11.1371 129.748 10.9012C130.199 10.6654 130.568 10.2962 130.845 9.79366C131.122 9.29116 131.266 8.68611 131.266 7.96825C131.266 7.24014 131.122 6.62483 130.845 6.12233C130.568 5.61983 130.199 5.25064 129.748 5.01477C129.297 4.77891 128.794 4.65585 128.261 4.65585C127.728 4.64559 127.225 4.76865 126.774 5.01477Z" fill="#CFCECD"/>
<path d="M137.05 1.73312C136.742 2.02027 136.578 2.51251 136.578 3.20986V3.45599H138.711V4.76864H136.578V12.46H135.081V4.76864H133.788V3.45599H135.081V3.0868C135.081 0.933225 136.291 -0.0922881 138.711 8.07835e-06V1.31266C137.911 1.31266 137.357 1.44598 137.05 1.73312Z" fill="#CFCECD"/>
<path d="M12.7676 44.456H0.563997L0.297363 42.2409C0.533231 41.9435 1.01522 41.6461 1.76385 41.3589V29.1758C1.03573 28.9092 0.543486 28.6118 0.297363 28.2734L0.563997 26.0583H6.79911L7.06575 28.2734C6.7786 28.6118 6.29661 28.9092 5.59926 29.1758V41.5435H9.81412C10.05 40.6206 10.3782 39.9642 10.7986 39.5745L12.7676 39.8104V44.456Z" fill="#F3F3F3"/>
<path d="M19.9154 44.6714C17.7824 44.6714 16.1826 44.1073 15.1058 42.969C14.029 41.8307 13.4957 40.1796 13.4957 38.0055C13.4957 36.6929 13.6803 35.5545 14.0598 34.6111C14.4289 33.6573 14.9417 32.9292 15.5775 32.4062C16.8184 31.4115 18.2746 30.909 19.9257 30.909C21.5768 30.909 22.8484 31.3294 23.7303 32.1703C24.6123 33.0113 25.0533 34.529 25.0533 36.7134C25.0533 37.9953 24.4174 38.6311 23.1561 38.6311H17.3722C17.444 39.7489 17.7311 40.5385 18.2439 41C18.7464 41.4615 19.5565 41.6974 20.6538 41.6974C21.2589 41.6974 21.8331 41.6256 22.3869 41.482C22.9407 41.3384 23.3407 41.1949 23.5868 41.0513L23.956 40.8359L24.7559 42.969C24.6533 43.0921 24.4892 43.2459 24.2944 43.4407C24.0893 43.6253 23.5765 43.8714 22.7459 44.1894C21.9049 44.5175 20.9615 44.6714 19.9154 44.6714ZM21.5973 36.2724C21.628 36.0263 21.6486 35.7186 21.6486 35.3699C21.6486 35.011 21.505 34.6418 21.2178 34.2419C20.9307 33.8419 20.4384 33.6471 19.7411 33.6471C19.0438 33.6471 18.5002 33.8624 18.131 34.2829C17.7619 34.7136 17.5055 35.4315 17.3824 36.4467L21.5973 36.2724Z" fill="#F3F3F3"/>
<path d="M26.93 33.0933C26.93 32.8267 26.9403 32.5395 26.9608 32.2421C28.6119 31.3499 30.386 30.909 32.2934 30.909C34.1906 30.909 35.5546 31.2679 36.3852 31.9858C37.2159 32.7036 37.6261 33.9035 37.6261 35.575V41.2564C38.2517 41.3795 38.7337 41.5333 39.0926 41.7076V44.0253C38.1901 44.456 36.8877 44.6611 35.1956 44.6611C35.0213 44.1996 34.8675 43.6356 34.7444 42.9793C33.9753 44.0971 32.5908 44.6611 30.5808 44.6611C29.3912 44.6611 28.376 44.3124 27.5248 43.6253C26.6839 42.928 26.2634 41.9948 26.2634 40.7949C26.2634 39.6053 26.6634 38.6618 27.453 37.985C28.2427 37.2979 29.422 36.9595 30.9808 36.9595H33.883V35.6879C33.883 34.3034 33.1446 33.6061 31.6679 33.6061C31.1141 33.6061 30.6629 33.6573 30.3039 33.7701C30.2629 34.5188 30.1604 35.0931 29.986 35.5033H27.3812C27.0838 34.8777 26.93 34.0778 26.93 33.0933ZM31.7294 41.9537C32.6319 41.9537 33.36 41.6871 33.8932 41.1538V38.9695H32.0268C30.7449 38.9695 30.1091 39.4617 30.1091 40.436C30.1091 40.877 30.2424 41.2461 30.5193 41.5333C30.7859 41.8102 31.1961 41.9537 31.7294 41.9537Z" fill="#F3F3F3"/>
<path d="M46.9787 25.525C47.994 25.2892 48.958 25.1764 49.8809 25.1764C50.8039 25.1764 51.5935 25.2071 52.2499 25.2584V41.2564C52.7831 41.3487 53.2754 41.4923 53.7164 41.7076V43.8099C52.6498 44.3842 51.2961 44.6611 49.6656 44.6611C49.4912 44.5688 49.3169 44.415 49.1426 44.1791C48.9682 43.9432 48.8759 43.7279 48.8657 43.5125C48.476 43.8304 47.9632 44.1073 47.3479 44.3227C46.7224 44.5483 46.1173 44.6611 45.5122 44.6611C43.5945 44.6611 42.1998 44.1381 41.3384 43.1023C40.477 42.0666 40.0463 40.3642 40.0463 37.9953C40.0463 35.3084 40.7026 33.4317 42.0153 32.3447C43.1741 31.3807 44.5893 30.909 46.2814 30.909C47.03 30.909 47.7786 31.0013 48.517 31.1756V28.54C47.6966 28.3042 47.0915 27.9863 46.7018 27.5761L46.9787 25.525ZM46.0763 41.9538C47.0915 41.9538 47.9119 41.6564 48.5273 41.0513V33.9035C47.7991 33.7291 47.03 33.6368 46.2096 33.6368C45.3892 33.6368 44.8046 33.9958 44.4355 34.7136C44.0663 35.4315 43.8919 36.5083 43.8919 37.944C43.8919 39.3797 44.0663 40.4052 44.4252 41.0205C44.7739 41.6358 45.3277 41.9538 46.0763 41.9538Z" fill="#F3F3F3"/>
<path d="M61.2437 44.6714C59.1106 44.6714 57.5108 44.1073 56.434 42.969C55.3572 41.8307 54.824 40.1796 54.824 38.0055C54.824 36.6929 55.0086 35.5545 55.388 34.6111C55.7572 33.6573 56.27 32.9292 56.9058 32.4062C58.1466 31.4115 59.6029 30.909 61.2539 30.909C62.905 30.909 64.1767 31.3294 65.0586 32.1703C65.9405 33.0113 66.3815 34.529 66.3815 36.7134C66.3815 37.9953 65.7457 38.6311 64.4843 38.6311H58.7004C58.7722 39.7489 59.0593 40.5385 59.5721 41C60.0746 41.4615 60.8848 41.6974 61.9821 41.6974C62.5871 41.6974 63.1614 41.6256 63.7152 41.482C64.2689 41.3384 64.6689 41.1949 64.915 41.0513L65.2842 40.8359L66.0841 42.969C65.9816 43.0921 65.8175 43.2459 65.6124 43.4407C65.4073 43.6253 64.8945 43.8714 64.0638 44.1894C63.2332 44.5175 62.2897 44.6714 61.2437 44.6714ZM62.9255 36.2724C62.9563 36.0263 62.9768 35.7186 62.9768 35.3699C62.9768 35.011 62.8332 34.6418 62.5461 34.2419C62.2589 33.8419 61.7667 33.6471 61.0693 33.6471C60.3617 33.6471 59.8285 33.8624 59.4593 34.2829C59.0901 34.7136 58.8337 35.4315 58.7107 36.4467L62.9255 36.2724Z" fill="#F3F3F3"/>
<path d="M75.7238 34.4059C74.3702 34.4059 73.437 34.6623 72.9242 35.1751V41.2769C74.3599 41.5435 75.3547 41.9127 75.8879 42.3947L75.6213 44.4457H67.9915L67.7249 42.3947C67.971 42.0563 68.4632 41.7589 69.1913 41.4922V34.0778C68.5658 33.8624 68.0838 33.565 67.7249 33.1753L67.9915 31.1243C68.9657 30.9089 69.8477 30.8064 70.6271 30.8064C71.4064 30.8064 72.0628 30.8269 72.5755 30.8577V32.5395C72.9857 32.0575 73.5087 31.6678 74.1446 31.3499C74.7804 31.0423 75.3649 30.8782 75.8879 30.8782C76.4109 30.8782 76.7699 30.9192 76.9647 31.0115L76.8827 34.4777C76.5443 34.4265 76.1443 34.4059 75.7238 34.4059Z" fill="#F3F3F3"/>
<path d="M83.4049 33.3087C82.2358 33.3087 81.641 33.6573 81.641 34.3444C81.641 35.0008 82.2563 35.493 83.4767 35.8109L85.579 36.3749C87.7428 36.939 88.8299 38.2004 88.8299 40.1386C88.8299 41.4717 88.3581 42.5588 87.4249 43.41C86.4917 44.2509 85.0047 44.6713 82.9742 44.6713C80.9437 44.6713 79.3541 44.3842 78.2158 43.8202C78.1953 43.6253 78.1851 43.4305 78.1851 43.2356C78.1851 42.2614 78.3799 41.3794 78.7696 40.6001H80.9847C81.2206 41.0308 81.3642 41.4717 81.4359 41.9332C81.7949 42.0358 82.2974 42.0973 82.9537 42.0973C84.5125 42.0973 85.3021 41.6563 85.3021 40.7641C85.3021 40.477 85.1996 40.2411 84.9842 40.0565C84.7689 39.8719 84.3484 39.6874 83.7331 39.513L81.6308 38.8977C80.5437 38.6003 79.7028 38.1491 79.0978 37.5543C78.4927 36.9595 78.1953 36.0775 78.1953 34.9187C78.1953 33.7496 78.667 32.7959 79.6105 32.0473C80.554 31.2987 81.8974 30.9295 83.651 30.9295C85.4047 30.9295 86.8814 31.1859 88.0915 31.6986C88.112 31.8729 88.1223 32.0575 88.1223 32.2319C88.1223 33.1548 87.9274 34.006 87.5377 34.7957H85.3534C85.1175 34.3855 84.974 33.965 84.9022 33.5138C84.3997 33.3702 83.8972 33.3087 83.4049 33.3087Z" fill="#F3F3F3"/>
<path d="M90.0401 25.525C91.0348 25.2892 91.9578 25.1764 92.809 25.1764C93.6601 25.1764 94.378 25.2071 94.9728 25.2584V31.9242C95.4035 31.6371 95.9675 31.4012 96.6751 31.2064C97.3827 31.0115 98.0186 30.909 98.5723 30.909C100.336 30.909 101.546 31.3397 102.223 32.1909C102.9 33.042 103.238 34.3444 103.238 36.0878V41.5025C103.936 41.7692 104.418 42.0768 104.705 42.405L104.438 44.456H98.3057L98.0391 42.405C98.2852 42.0666 98.7774 41.7692 99.5056 41.5025V36.2211C99.5056 35.2572 99.3517 34.6213 99.0338 34.2932C98.7262 33.965 98.1621 33.8009 97.3417 33.8009C96.5213 33.8009 95.7317 34.0881 94.9728 34.6521V41.5025C95.6701 41.7692 96.1521 42.0768 96.4393 42.405L96.1726 44.456H90.0401L89.7734 42.405C90.0196 42.0666 90.5118 41.7692 91.2399 41.5025V28.4888C90.6144 28.2734 90.1324 27.976 89.7734 27.5863L90.0401 25.525Z" fill="#F3F3F3"/>
<path d="M105.956 31.1243C106.951 30.8885 107.874 30.7757 108.725 30.7757C109.576 30.7757 110.294 30.8064 110.889 30.8577V41.4923C111.586 41.7589 112.068 42.0665 112.355 42.3947L112.089 44.4457H105.956L105.689 42.3947C105.935 42.0563 106.428 41.7589 107.156 41.4923V34.0778C106.53 33.8624 106.048 33.565 105.689 33.1753L105.956 31.1243ZM108.981 29.2887C107.494 29.2887 106.756 28.6221 106.756 27.2787C106.756 25.9352 107.494 25.2686 108.981 25.2686C110.468 25.2686 111.207 25.9352 111.207 27.2787C111.207 28.6118 110.468 29.2887 108.981 29.2887Z" fill="#F3F3F3"/>
<path d="M113.401 31.1243C114.375 30.9089 115.257 30.8064 116.037 30.8064C116.816 30.8064 117.472 30.8269 117.985 30.8577V32.1601C119.175 31.3294 120.446 30.9089 121.8 30.9089C123.574 30.9089 124.866 31.4114 125.666 32.4267C126.466 33.442 126.866 35.1341 126.866 37.4927C126.866 38.7541 126.682 39.8617 126.302 40.8257C125.933 41.7896 125.42 42.528 124.784 43.0613C123.554 44.1278 122.098 44.6611 120.416 44.6611C119.688 44.6611 118.99 44.5893 118.334 44.4457V46.7429C119.38 47.03 120.057 47.3582 120.364 47.7274L120.098 49.7784H113.401L113.135 47.7274C113.37 47.4094 113.852 47.1018 114.601 46.8249V34.088C113.975 33.8727 113.493 33.5753 113.135 33.1856L113.401 31.1243ZM120.139 41.9537C121.031 41.9537 121.728 41.5538 122.241 40.7641C122.754 39.9745 123.01 38.8772 123.01 37.4825C123.01 36.0878 122.867 35.1341 122.579 34.611C122.292 34.0983 121.78 33.8419 121.031 33.8419C119.893 33.8419 118.99 34.1085 118.313 34.6418V41.7384C118.877 41.8819 119.482 41.9537 120.139 41.9537Z" fill="#F3F3F3"/>
<path d="M128.517 42.7229C128.517 41.3692 129.276 40.6924 130.784 40.6924C132.291 40.6924 133.05 41.3692 133.05 42.7229C133.05 43.9125 132.753 45.02 132.148 46.0455C131.542 47.071 130.814 47.8812 129.963 48.4862L128.845 47.7889C129.43 46.8147 129.727 45.8507 129.727 44.9072C129.727 44.7636 129.717 44.6303 129.697 44.5073C129.358 44.4047 129.081 44.1791 128.856 43.8509C128.63 43.5228 128.517 43.1536 128.517 42.7229Z" fill="#F3F3F3"/>
<path d="M147.418 26.0583L147.684 28.2734C147.397 28.6118 146.915 28.9092 146.218 29.1758V41.3589C146.925 41.6461 147.418 41.9332 147.684 42.2409L147.418 44.456H141.182L140.916 42.2409C141.152 41.9435 141.634 41.6461 142.382 41.3589V29.1758C141.654 28.9092 141.162 28.6118 140.916 28.2734L141.182 26.0583H147.418Z" fill="#F3F3F3"/>
<path d="M149.499 31.1243C150.474 30.9089 151.355 30.8064 152.135 30.8064C152.914 30.8064 153.571 30.8269 154.083 30.8577V32.1908C154.524 31.8217 155.119 31.514 155.857 31.2679C156.596 31.032 157.303 30.9089 157.98 30.9089C159.724 30.9089 160.944 31.3192 161.641 32.1396C162.339 32.96 162.698 34.3752 162.698 36.3749V41.4922C163.395 41.7589 163.877 42.0665 164.164 42.3947L163.898 44.4457H157.765L157.498 42.3947C157.744 42.0563 158.237 41.7589 158.965 41.4922V36.2108C158.965 35.2469 158.811 34.611 158.493 34.2829C158.185 33.9547 157.632 33.7906 156.821 33.7906C156.022 33.7906 155.222 34.0778 154.422 34.6418V41.4922C155.119 41.7589 155.601 42.0665 155.888 42.3947L155.622 44.4457H149.489L149.222 42.3947C149.469 42.0563 149.961 41.7589 150.689 41.4922V34.0778C150.063 33.8624 149.581 33.565 149.222 33.1753L149.499 31.1243Z" fill="#F3F3F3"/>
<path d="M172.994 44.6201H170.061L165.692 34.2214C164.8 33.9342 164.205 33.5856 163.908 33.1856L164.174 31.1346H170.307L170.574 33.1856C170.338 33.4728 169.958 33.7291 169.425 33.9547L170.861 37.985C171.179 38.8157 171.414 39.6463 171.558 40.4667L171.609 40.8359H171.978C172.122 39.9437 172.368 39.0105 172.727 38.0363L174.142 34.0881C173.486 33.8419 173.025 33.5343 172.758 33.1856L173.025 31.1346H178.89L179.157 33.1856C178.839 33.5958 178.255 33.9445 177.393 34.2214L172.994 44.6201Z" fill="#F3F3F3"/>
<path d="M186.428 44.6714C184.295 44.6714 182.695 44.1073 181.618 42.969C180.542 41.8307 180.008 40.1796 180.008 38.0055C180.008 36.6929 180.193 35.5545 180.572 34.6111C180.942 33.6573 181.454 32.9292 182.09 32.4062C183.331 31.4115 184.787 30.909 186.438 30.909C188.089 30.909 189.361 31.3294 190.243 32.1703C191.125 33.0113 191.566 34.529 191.566 36.7134C191.566 37.9953 190.93 38.6311 189.669 38.6311H183.885C183.957 39.7489 184.244 40.5385 184.756 41C185.259 41.4615 186.069 41.6974 187.166 41.6974C187.771 41.6974 188.346 41.6256 188.899 41.482C189.453 41.3384 189.853 41.1949 190.099 41.0513L190.469 40.8359L191.268 42.969C191.166 43.0921 191.002 43.2459 190.797 43.4407C190.592 43.6253 190.079 43.8714 189.248 44.1894C188.418 44.5175 187.474 44.6714 186.428 44.6714ZM188.11 36.2724C188.141 36.0263 188.161 35.7186 188.161 35.3699C188.161 35.011 188.018 34.6418 187.73 34.2419C187.443 33.8419 186.951 33.6471 186.254 33.6471C185.546 33.6471 185.013 33.8624 184.644 34.2829C184.274 34.7136 184.018 35.4315 183.895 36.4467L188.11 36.2724Z" fill="#F3F3F3"/>
<path d="M198.242 33.3087C197.073 33.3087 196.478 33.6573 196.478 34.3444C196.478 35.0008 197.093 35.493 198.314 35.8109L200.416 36.3749C202.58 36.939 203.667 38.2004 203.667 40.1386C203.667 41.4717 203.195 42.5588 202.262 43.41C201.329 44.2509 199.842 44.6713 197.811 44.6713C195.781 44.6713 194.191 44.3842 193.053 43.8202C193.032 43.6253 193.022 43.4305 193.022 43.2356C193.022 42.2614 193.217 41.3794 193.607 40.6001H195.822C196.057 41.0308 196.201 41.4717 196.273 41.9332C196.632 42.0358 197.134 42.0973 197.791 42.0973C199.349 42.0973 200.139 41.6563 200.139 40.7641C200.139 40.477 200.036 40.2411 199.821 40.0565C199.606 39.8719 199.185 39.6874 198.57 39.513L196.468 38.8977C195.381 38.6003 194.54 38.1491 193.935 37.5543C193.33 36.9595 193.032 36.0775 193.032 34.9187C193.032 33.7496 193.504 32.7959 194.447 32.0473C195.391 31.2987 196.734 30.9295 198.488 30.9295C200.242 30.9295 201.718 31.1859 202.928 31.6986C202.949 31.8729 202.959 32.0575 202.959 32.2319C202.959 33.1548 202.764 34.006 202.375 34.7957H200.19C199.954 34.3855 199.811 33.965 199.739 33.5138C199.237 33.3702 198.734 33.3087 198.242 33.3087Z" fill="#F3F3F3"/>
<path d="M209.779 27.7607V31.1243H213.594V33.36H209.779V40.1078C209.779 40.6719 209.861 41.0923 210.015 41.3487C210.179 41.6051 210.558 41.7384 211.163 41.7384C211.768 41.7384 212.415 41.6051 213.112 41.3384L213.912 43.4202C212.548 44.1176 211.143 44.456 209.707 44.456C208.271 44.456 207.307 44.1483 206.805 43.533C206.302 42.9177 206.046 42.0255 206.046 40.8564V33.36H204.846L204.549 31.7294C204.836 31.391 205.42 31.0525 206.313 30.7141C206.528 29.2579 207.031 28.2734 207.83 27.7504H209.779V27.7607Z" fill="#F3F3F3"/>
<path d="M215.112 31.1243C216.086 30.9089 216.968 30.8064 217.747 30.8064C218.527 30.8064 219.183 30.8269 219.696 30.8577V32.1908C220.126 31.8319 220.66 31.5345 221.295 31.2884C221.931 31.0423 222.516 30.9192 223.029 30.9192C225.059 30.9192 226.402 31.4217 227.079 32.437C227.52 32.0062 228.115 31.6473 228.843 31.3602C229.571 31.0628 230.248 30.9192 230.874 30.9192C232.832 30.9192 234.145 31.3602 234.822 32.2421C235.499 33.1241 235.837 34.7751 235.837 37.1851V41.5025C236.535 41.7691 237.017 42.0768 237.304 42.4049L237.037 44.456H230.905L230.638 42.4049C230.884 42.0665 231.376 41.7691 232.104 41.5025V36.2211C232.104 35.2469 231.971 34.5905 231.704 34.2726C231.438 33.9547 230.905 33.7906 230.115 33.7906C229.325 33.7906 228.577 34.088 227.859 34.6726C227.951 35.2776 227.992 36.1083 227.992 37.1748V41.4922C228.689 41.7589 229.171 42.0665 229.459 42.3947L229.192 44.4457H223.059L222.793 42.3947C223.039 42.0563 223.531 41.7589 224.259 41.4922V36.2108C224.259 35.2366 224.126 34.5803 223.859 34.2624C223.593 33.9445 223.07 33.7804 222.29 33.7804C221.511 33.7804 220.762 34.0675 220.055 34.6316V41.482C220.752 41.7486 221.234 42.0563 221.521 42.3844L221.254 44.4355H215.122L214.855 42.3844C215.101 42.046 215.594 41.7486 216.322 41.482V34.0675C215.696 33.8522 215.214 33.5548 214.855 33.1651L215.112 31.1243Z" fill="#F3F3F3"/>
<path d="M244.605 44.6714C242.472 44.6714 240.872 44.1073 239.796 42.969C238.719 41.8307 238.186 40.1796 238.186 38.0055C238.186 36.6929 238.37 35.5545 238.75 34.6111C239.119 33.6573 239.632 32.9292 240.267 32.4062C241.508 31.4115 242.964 30.909 244.616 30.909C246.267 30.909 247.538 31.3294 248.42 32.1703C249.302 33.0113 249.743 34.529 249.743 36.7134C249.743 37.9953 249.107 38.6311 247.846 38.6311H242.062C242.134 39.7489 242.421 40.5385 242.934 41C243.436 41.4615 244.246 41.6974 245.344 41.6974C245.949 41.6974 246.523 41.6256 247.077 41.482C247.631 41.3384 248.03 41.1949 248.277 41.0513L248.646 40.8359L249.446 42.969C249.343 43.0921 249.179 43.2459 248.974 43.4407C248.769 43.6253 248.256 43.8714 247.425 44.1894C246.595 44.5175 245.651 44.6714 244.605 44.6714ZM246.287 36.2724C246.318 36.0263 246.338 35.7186 246.338 35.3699C246.338 35.011 246.195 34.6418 245.908 34.2419C245.621 33.8419 245.128 33.6471 244.431 33.6471C243.723 33.6471 243.19 33.8624 242.821 34.2829C242.452 34.7136 242.195 35.4315 242.072 36.4467L246.287 36.2724Z" fill="#F3F3F3"/>
<path d="M251.353 31.1243C252.327 30.9089 253.209 30.8064 253.989 30.8064C254.768 30.8064 255.424 30.8269 255.937 30.8577V32.1908C256.378 31.8217 256.973 31.514 257.711 31.2679C258.45 31.032 259.157 30.9089 259.834 30.9089C261.578 30.9089 262.798 31.3192 263.506 32.1396C264.203 32.96 264.562 34.3752 264.562 36.3749V41.4922C265.259 41.7589 265.741 42.0665 266.028 42.3947L265.762 44.4457H259.629L259.362 42.3947C259.609 42.0563 260.101 41.7589 260.829 41.4922V36.2108C260.829 35.2469 260.675 34.611 260.357 34.2829C260.05 33.9547 259.496 33.7906 258.686 33.7906C257.886 33.7906 257.086 34.0778 256.286 34.6418V41.4922C256.983 41.7589 257.465 42.0665 257.752 42.3947L257.486 44.4457H251.353L251.087 42.3947C251.333 42.0563 251.825 41.7589 252.553 41.4922V34.0778C251.927 33.8624 251.445 33.565 251.087 33.1753L251.353 31.1243Z" fill="#F3F3F3"/>
<path d="M271.802 27.7607V31.1243H275.617V33.36H271.802V40.1078C271.802 40.6719 271.884 41.0923 272.038 41.3487C272.202 41.6051 272.581 41.7384 273.186 41.7384C273.791 41.7384 274.437 41.6051 275.135 41.3384L275.935 43.4202C274.561 44.1176 273.166 44.456 271.73 44.456C270.305 44.456 269.33 44.1483 268.828 43.533C268.325 42.9177 268.069 42.0255 268.069 40.8564V33.36H266.869L266.572 31.7294C266.859 31.391 267.443 31.0525 268.336 30.7141C268.551 29.2579 269.054 28.2734 269.853 27.7504H271.802V27.7607Z" fill="#F3F3F3"/>
<path d="M277.135 42.7229C277.135 41.3692 277.893 40.6924 279.401 40.6924C280.908 40.6924 281.667 41.3692 281.667 42.7229C281.667 43.9125 281.37 45.02 280.765 46.0455C280.16 47.071 279.432 47.8812 278.58 48.4862L277.463 47.7889C278.047 46.8147 278.345 45.8507 278.345 44.9072C278.345 44.7636 278.334 44.6303 278.314 44.5073C277.975 44.4047 277.699 44.1791 277.473 43.8509C277.247 43.5228 277.135 43.1536 277.135 42.7229Z" fill="#F3F3F3"/>
<path d="M0.666583 65.0893C0.666583 64.8227 0.676838 64.5355 0.697349 64.2381C2.34842 63.3459 4.12256 62.905 6.03002 62.905C7.92721 62.905 9.29115 63.2639 10.1218 63.9818C10.9525 64.6996 11.3627 65.8995 11.3627 67.5711V73.2524C11.9882 73.3755 12.4702 73.5293 12.8292 73.7036V76.0213C11.9267 76.452 10.6243 76.6571 8.93222 76.6571C8.75788 76.1956 8.60405 75.6316 8.48099 74.9753C7.71186 76.0931 6.32741 76.6571 4.31741 76.6571C3.12781 76.6571 2.11256 76.3084 1.26138 75.6213C0.42046 74.9342 0 73.9908 0 72.8012C0 71.6116 0.39995 70.6681 1.18959 69.9913C1.97924 69.3042 3.15858 68.9657 4.71736 68.9657H7.61956V67.6839C7.61956 66.2994 6.88119 65.6021 5.40445 65.6021C4.85068 65.6021 4.39945 65.6533 4.04052 65.7661C3.9995 66.5148 3.89695 67.0891 3.72261 67.4993H1.11781C0.82041 66.8737 0.666583 66.0738 0.666583 65.0893ZM5.46598 73.9497C6.36843 73.9497 7.09655 73.6831 7.62982 73.1498V70.9655H5.76338C4.48149 70.9655 3.84567 71.4577 3.84567 72.432C3.84567 72.8729 3.97899 73.2421 4.25588 73.5293C4.53277 73.8062 4.93272 73.9497 5.46598 73.9497Z" fill="#F3F3F3"/>
<path d="M14.0495 63.1203C15.0237 62.905 15.9056 62.8024 16.685 62.8024C17.4644 62.8024 18.1208 62.8229 18.6335 62.8537V64.1869C19.0745 63.8177 19.6693 63.51 20.4076 63.2639C21.146 63.028 21.8536 62.905 22.5305 62.905C24.2738 62.905 25.4942 63.3152 26.1915 64.1356C26.8889 64.956 27.2478 66.3712 27.2478 68.371V73.4883C27.9452 73.7549 28.4272 74.0626 28.7143 74.3907L28.4477 76.4417H22.3151L22.0485 74.3907C22.2946 74.0523 22.7868 73.7549 23.515 73.4883V68.2069C23.515 67.2429 23.3611 66.6071 23.0535 66.2789C22.7458 65.9507 22.192 65.7867 21.3819 65.7867C20.582 65.7867 19.7821 66.0738 18.9822 66.6378V73.4883C19.6795 73.7549 20.1615 74.0626 20.4487 74.3907L20.182 76.4417H14.0495L13.7828 74.3907C14.029 74.0523 14.5212 73.7549 15.2493 73.4883V66.0738C14.6238 65.8585 14.1418 65.5611 13.7828 65.1714L14.0495 63.1203Z" fill="#F3F3F3"/>
<path d="M36.58 57.521C37.5953 57.2851 38.5593 57.1723 39.4823 57.1723C40.4052 57.1723 41.1949 57.2031 41.8512 57.2544V73.2524C42.3845 73.3447 42.8767 73.4882 43.3177 73.7036V75.8059C42.2511 76.3802 40.8975 76.6571 39.2669 76.6571C39.0926 76.5648 38.9182 76.411 38.7439 76.1751C38.5695 75.9392 38.4772 75.7239 38.467 75.5085C38.0773 75.8264 37.5645 76.1033 36.9492 76.3187C36.3237 76.5443 35.7186 76.6571 35.1136 76.6571C33.1959 76.6571 31.8012 76.1341 30.9397 75.0983C30.0783 74.0625 29.6476 72.3602 29.6476 69.9912C29.6476 67.3044 30.3039 65.4277 31.6166 64.3407C32.7754 63.3767 34.1906 62.9049 35.8827 62.9049C36.6313 62.9049 37.3799 62.9972 38.1183 63.1716V60.536C37.2979 60.3001 36.6929 59.9822 36.3032 59.572L36.58 57.521ZM35.6776 73.9497C36.6929 73.9497 37.5133 73.6523 38.1286 73.0473V65.8994C37.4005 65.7251 36.6313 65.6328 35.8109 65.6328C34.9905 65.6328 34.406 65.9917 34.0368 66.7096C33.6676 67.4275 33.4933 68.5042 33.4933 69.94C33.4933 71.3757 33.6676 72.4012 34.0265 73.0165C34.3752 73.6318 34.929 73.9497 35.6776 73.9497Z" fill="#F3F3F3"/>
<path d="M64.8945 58.0851V61.9L63.2126 62.1153C62.9768 61.941 62.7614 61.5615 62.5461 60.9975H59.3465V73.3652C60.0541 73.6523 60.5463 73.9395 60.8129 74.2471L60.5463 76.4622H54.3112L54.0446 74.2471C54.2804 73.9497 54.7624 73.6523 55.511 73.3652V60.9873H52.3114C52.0961 61.5615 51.8807 61.9307 51.6449 62.1051L49.963 61.8897V58.0748H64.8945V58.0851Z" fill="#F3F3F3"/>
<path d="M72.2063 76.6674C70.0733 76.6674 68.4735 76.1033 67.3967 74.965C66.3199 73.8267 65.7866 72.1756 65.7866 70.0015C65.7866 68.6889 65.9712 67.5505 66.3506 66.5968C66.7198 65.6431 67.2326 64.915 67.8684 64.4022C69.1093 63.4075 70.5655 62.905 72.2166 62.905C73.8677 62.905 75.1393 63.3254 76.0212 64.1663C76.9032 65.0073 77.3441 66.525 77.3441 68.7094C77.3441 69.9913 76.7083 70.6271 75.4469 70.6271H69.6631C69.7348 71.7449 70.022 72.5345 70.5347 72.996C71.0372 73.4575 71.8474 73.6934 72.9447 73.6934C73.5497 73.6934 74.124 73.6216 74.6778 73.478C75.2316 73.3344 75.6315 73.1909 75.8777 73.0473L76.2468 72.8319L77.0467 74.965C76.9442 75.0881 76.7801 75.2419 76.575 75.4367C76.3699 75.6213 75.8572 75.8675 75.0265 76.1854C74.1856 76.5135 73.2524 76.6674 72.2063 76.6674ZM73.8779 68.2684C73.9087 68.0223 73.9292 67.7146 73.9292 67.366C73.9292 67.007 73.7856 66.6378 73.4985 66.2276C73.2113 65.8277 72.7191 65.6328 72.0217 65.6328C71.3141 65.6328 70.7809 65.8482 70.4117 66.2687C70.0425 66.6994 69.7861 67.4172 69.6631 68.4325L73.8779 68.2684Z" fill="#F3F3F3"/>
<path d="M84.9433 65.6226C83.3024 65.6226 82.4923 67.0275 82.4923 69.8374C82.4923 71.2629 82.7179 72.2474 83.1691 72.8114C83.6203 73.3755 84.2767 73.6523 85.1279 73.6523C86.4815 73.6523 87.6711 73.5293 88.6966 73.2832L89.4965 75.3342C88.9325 75.7034 88.1634 76.0213 87.1994 76.2777C86.2354 76.534 85.3022 76.6674 84.3997 76.6674C80.5643 76.6674 78.6364 74.442 78.6364 70.0015C78.6364 67.407 79.3029 65.5405 80.6361 64.4022C81.8257 63.4075 83.2717 62.905 84.9843 62.905C86.6866 62.905 88.1121 63.2229 89.2504 63.8689C89.2709 64.0433 89.2812 64.2176 89.2812 64.3715C89.2812 65.3867 89.0453 66.3404 88.5838 67.2531H86.2354C85.9893 66.8122 85.8355 66.2789 85.7842 65.6533C85.5893 65.6328 85.3022 65.6226 84.9433 65.6226Z" fill="#F3F3F3"/>
<path d="M90.6245 57.521C91.6193 57.2851 92.5423 57.1723 93.3934 57.1723C94.2446 57.1723 94.9625 57.2031 95.5573 57.2544V63.9202C95.988 63.6331 96.552 63.3972 97.2596 63.2023C97.9672 63.0075 98.603 62.9049 99.1568 62.9049C100.921 62.9049 102.131 63.3357 102.808 64.1868C103.484 65.038 103.823 66.3404 103.823 68.0838V73.4985C104.52 73.7651 105.002 74.0728 105.289 74.4009L105.023 76.452H98.8902L98.6235 74.4009C98.8697 74.0625 99.3619 73.7651 100.09 73.4985V68.2171C100.09 67.2531 99.9362 66.6173 99.6183 66.2891C99.3004 65.961 98.7466 65.7969 97.9262 65.7969C97.1058 65.7969 96.3161 66.084 95.5573 66.6481V73.4985C96.2546 73.7651 96.7366 74.0728 97.0237 74.4009L96.7571 76.452H90.6245L90.3579 74.4009C90.604 74.0625 91.0963 73.7651 91.8244 73.4985V60.4847C91.1988 60.2694 90.7168 59.972 90.3579 59.5823L90.6245 57.521Z" fill="#F3F3F3"/>
<path d="M106.489 63.1203C107.464 62.905 108.345 62.8024 109.125 62.8024C109.904 62.8024 110.561 62.8229 111.073 62.8537V64.1869C111.514 63.8177 112.109 63.51 112.847 63.2639C113.586 63.028 114.293 62.905 114.97 62.905C116.714 62.905 117.934 63.3152 118.631 64.1356C119.329 64.956 119.688 66.3712 119.688 68.371V73.4883C120.385 73.7549 120.867 74.0626 121.154 74.3907L120.887 76.4417H114.755L114.488 74.3907C114.734 74.0523 115.227 73.7549 115.955 73.4883V68.2069C115.955 67.2429 115.801 66.6071 115.483 66.2789C115.175 65.9507 114.622 65.7867 113.811 65.7867C113.012 65.7867 112.212 66.0738 111.412 66.6378V73.4883C112.109 73.7549 112.591 74.0626 112.878 74.3907L112.612 76.4417H106.479L106.212 74.3907C106.459 74.0523 106.951 73.7549 107.679 73.4883V66.0738C107.053 65.8585 106.571 65.5611 106.212 65.1714L106.489 63.1203Z" fill="#F3F3F3"/>
<path d="M128.261 76.6674C126.159 76.6674 124.6 76.1033 123.585 74.9855C122.569 73.8677 122.067 72.1756 122.067 69.9092C122.067 67.6428 122.631 65.9097 123.759 64.7099C124.887 63.51 126.507 62.9152 128.63 62.9152C130.743 62.9152 132.312 63.4485 133.337 64.515C134.363 65.5816 134.875 67.2531 134.875 69.5093C134.875 71.7757 134.301 73.5395 133.153 74.7907C131.994 76.0418 130.373 76.6674 128.261 76.6674ZM125.902 69.6836C125.902 72.5243 126.753 73.9497 128.466 73.9497C129.338 73.9497 129.984 73.6216 130.394 72.9755C130.814 72.3294 131.02 71.2629 131.02 69.7862C131.02 67.0173 130.148 65.6226 128.404 65.6226C127.553 65.6226 126.917 65.9302 126.507 66.5455C126.107 67.1608 125.902 68.2069 125.902 69.6836Z" fill="#F3F3F3"/>
<path d="M136.168 57.521C137.162 57.2851 138.085 57.1723 138.937 57.1723C139.788 57.1723 140.506 57.2031 141.1 57.2544V73.4882C141.798 73.7549 142.28 74.0625 142.567 74.3907L142.3 76.4417H136.168L135.901 74.3907C136.147 74.0523 136.639 73.7549 137.367 73.4882V60.4847C136.742 60.2694 136.26 59.972 135.901 59.5823L136.168 57.521Z" fill="#F3F3F3"/>
<path d="M149.827 76.6674C147.725 76.6674 146.166 76.1033 145.151 74.9855C144.136 73.8677 143.633 72.1756 143.633 69.9092C143.633 67.6428 144.197 65.9097 145.325 64.7099C146.453 63.51 148.074 62.9152 150.197 62.9152C152.309 62.9152 153.878 63.4485 154.904 64.515C155.929 65.5816 156.442 67.2531 156.442 69.5093C156.442 71.7757 155.868 73.5395 154.719 74.7907C153.56 76.0418 151.94 76.6674 149.827 76.6674ZM147.469 69.6836C147.469 72.5243 148.32 73.9497 150.033 73.9497C150.904 73.9497 151.55 73.6216 151.96 72.9755C152.381 72.3294 152.586 71.2629 152.586 69.7862C152.586 67.0173 151.714 65.6226 149.971 65.6226C149.12 65.6226 148.484 65.9302 148.074 66.5455C147.674 67.1608 147.469 68.2069 147.469 69.6836Z" fill="#F3F3F3"/>
<path d="M163.928 79.2824C165.508 79.2824 166.297 78.3287 166.297 76.4315V75.2624C165.425 75.7957 164.328 76.0623 163.016 76.0623C161.344 76.0623 160.062 75.57 159.16 74.5958C158.257 73.6216 157.816 71.991 157.816 69.7144C157.816 65.1816 159.898 62.9152 164.051 62.9152C165.118 62.9152 166.113 63.1511 167.036 63.6126C167.21 63.2947 167.476 63.1306 167.835 63.1306H170.02V76.2469C170.02 78.2056 169.538 79.6516 168.564 80.5951C167.6 81.5385 166.102 82.0103 164.072 82.0103C163.005 82.0103 161.908 81.8872 160.77 81.6411C159.631 81.395 158.77 81.0771 158.185 80.7079C158.165 80.5438 158.155 80.39 158.155 80.2259C158.155 79.2516 158.39 78.3082 158.852 77.3955H161.2C161.395 77.7647 161.539 78.2672 161.631 78.8927C162.308 79.1491 163.067 79.2824 163.928 79.2824ZM162.041 72.3499C162.4 72.8832 163.026 73.1498 163.908 73.1498C164.79 73.1498 165.579 72.9037 166.297 72.4012V66.0841C165.59 65.7867 164.81 65.6328 163.979 65.6328C162.328 65.6328 161.498 66.9352 161.498 69.5503C161.498 70.8835 161.682 71.8167 162.041 72.3499Z" fill="#F3F3F3"/>
<path d="M175.66 79.549C175.978 79.549 176.327 79.2516 176.686 78.6568C177.044 78.0621 177.301 77.3544 177.444 76.534L173.076 66.1866C172.204 65.8995 171.62 65.5611 171.312 65.1714L171.579 63.1203H177.711L177.978 65.1714C177.742 65.4585 177.352 65.7149 176.809 65.9405L178.275 69.9708C178.593 70.8014 178.819 71.6321 178.942 72.4525L179.024 72.8217H179.393C179.536 71.9295 179.783 70.9963 180.142 70.022L181.557 66.0738C180.9 65.8277 180.439 65.52 180.172 65.1714L180.439 63.1203H186.305L186.572 65.1714C186.254 65.5816 185.669 65.9302 184.808 66.2071L180.408 76.6058C179.578 78.5748 178.931 79.8464 178.49 80.4207C177.711 81.4668 176.624 81.9898 175.229 81.9898C173.835 81.9898 172.768 81.6206 172.04 80.8925C172.019 80.7181 172.009 80.5335 172.009 80.3592C172.009 79.385 172.214 78.462 172.625 77.5903H174.84C175.106 78.0723 175.26 78.7184 175.291 79.5388H175.66V79.549Z" fill="#F3F3F3"/>
<path d="M195.053 63.1716H191.463V77.5288H195.053V63.1716Z" fill="#ED3436"/>
<path d="M205.133 63.1716H198.293V77.5288H205.133V63.1716Z" fill="#ED3436"/>
<path d="M220.167 63.1716H208.548V77.5288H220.167V63.1716Z" fill="#ED3436"/>
<path d="M278.283 63.1716H224.187V77.5288H278.283V63.1716Z" fill="#ED3436"/>
</g>
<defs>
<clipPath id="clip0_66_176">
<rect width="281.667" height="82" fill="white"/>
</clipPath>
</defs>
</svg>
