<?xml version="1.0" encoding="UTF-8"?> <svg xmlns="http://www.w3.org/2000/svg" viewBox="0 0 340.77 93.5"><defs><style>.cls-1{fill:#e94937;}.cls-2{fill:#99004d;}.cls-3{fill:#fff;}.cls-4{fill:#3b3b3b;}</style></defs><g id="Layer_2" data-name="Layer 2"><g id="Layer_1-2" data-name="Layer 1"><path class="cls-1" d="M60.19,46.9c-19.92-6.48-30,1-30,1l0-25.34a2.39,2.39,0,0,0,2.35-2.39,2.36,2.36,0,0,0-2.06-2.35V0Z"></path><path class="cls-2" d="M30.17,47.91l-.06,0c-.52-.4-4.55-3.25-11.85-3.82l-1-.07A40.51,40.51,0,0,0,0,47.12H0L29.59,0V17.86a2.36,2.36,0,0,0-1.88,2.32,2.39,2.39,0,0,0,2.38,2.39h0Z"></path><path class="cls-1" d="M60.05,50.29C40,42.86,30.1,51.43,30.1,51.43,17.57,41.84,0,50.55,0,50.55L.09,92.24c23.84-10.56,30-2.48,30-2.48,10.61-7.68,30,2.48,30,2.48Z"></path><path class="cls-2" d="M.07,50.54s17.59-8.66,30.1.88l0,38.33s-6.68-8-30,2.47Z"></path><path class="cls-3" d="M20.11,59.87c.8,0,1.19.3,1.19.9v2.65H13.51v3.4h5.67c.79,0,1.19.3,1.19.9v2.65H13.51v3.78h6.92c.8,0,1.19.3,1.19.9V77.7H9.23Q8,77.7,8,76.8V59.87Z"></path><path class="cls-3" d="M53.49,77.65H49.13a1.07,1.07,0,0,1-.77-.28,1.93,1.93,0,0,1-.47-.64c-.42-.88-.85-1.76-1.3-2.66s-.89-1.78-1.35-2.64-.9-1.68-1.33-2.47-.85-1.49-1.26-2.11v10.8H38.78c-.79,0-1.18-.3-1.18-.9V59.83h4.16a1.26,1.26,0,0,1,.83.28,2.69,2.69,0,0,1,.57.65l1.23,2c.45.75.91,1.54,1.38,2.36s.93,1.66,1.39,2.51.89,1.67,1.28,2.46V59.83h3.87c.78,0,1.18.3,1.18.9Z"></path><path class="cls-4" d="M102.8,2.19a1.4,1.4,0,0,1,1.57,1.58v4.3H84.81V22.64H101a1.39,1.39,0,0,1,1.57,1.58V28.6H84.81V43.71h18.74a1.73,1.73,0,0,1,1.2.41,1.55,1.55,0,0,1,.44,1.17V49.6H79.27c-1.1,0-1.65-.53-1.65-1.58V2.19Z"></path><path class="cls-4" d="M145.07,49.6h-5.68c-.78,0-1.39-.53-1.85-1.58q-1.09-2.33-2.59-5.33t-3.22-6.3q-1.71-3.28-3.49-6.67c-1.18-2.25-2.32-4.4-3.42-6.43s-2.1-3.87-3-5.54-1.66-3-2.26-4.07V49.6h-5.19c-1.1,0-1.65-.53-1.65-1.58V2.19h5.75a1.48,1.48,0,0,1,1.16.45,6,6,0,0,1,.82,1.13c.6,1,1.34,2.37,2.23,4L125.61,13c1.07,1.91,2.17,3.94,3.32,6.09l3.38,6.39c1.12,2.12,2.19,4.18,3.22,6.16s1.92,3.77,2.7,5.37V2.19h5.2a1.43,1.43,0,0,1,1.64,1.58Z"></path><path class="cls-4" d="M197.33,24.56c1.09,0,1.64.52,1.64,1.57V48.3a30.85,30.85,0,0,1-5.64,1.5,38.48,38.48,0,0,1-6.74.55,25.9,25.9,0,0,1-9-1.37,12.71,12.71,0,0,1-5.88-4.34,19.39,19.39,0,0,1-3.21-7.56,53.27,53.27,0,0,1-1-11.08,53.65,53.65,0,0,1,1.06-11.53,19,19,0,0,1,3.32-7.56,12.74,12.74,0,0,1,5.75-4.14A24.83,24.83,0,0,1,186,1.51a32.41,32.41,0,0,1,6.12.51A19.54,19.54,0,0,1,196,3.08a2,2,0,0,1,1.06.82,3.34,3.34,0,0,1,.24,1.44V8.42c-1.32-.18-2.93-.36-4.82-.52s-3.66-.24-5.31-.24a20.71,20.71,0,0,0-5.88.72,7.13,7.13,0,0,0-3.83,2.7,13.51,13.51,0,0,0-2.08,5.48,50.26,50.26,0,0,0-.65,9,50.11,50.11,0,0,0,.75,9.68,14.33,14.33,0,0,0,2.25,5.67,7.19,7.19,0,0,0,3.8,2.7,18.72,18.72,0,0,0,5.37.69c1,0,2,0,3-.1a24.85,24.85,0,0,0,2.49-.31V30.44h-5.88a1.39,1.39,0,0,1-1-.41,1.58,1.58,0,0,1-.41-1.16V24.56Z"></path><path class="cls-4" d="M213.88,41.52a3.29,3.29,0,0,0,.62,2.4,3.57,3.57,0,0,0,2.19.61,4.37,4.37,0,0,1,1.64.35c.36.18.54.61.54,1.3v3.14a13.88,13.88,0,0,1-2.25.51,16.64,16.64,0,0,1-2.53.18,8.17,8.17,0,0,1-3.49-.65,5.29,5.29,0,0,1-2.19-2,8.59,8.59,0,0,1-1.13-3.25,30.21,30.21,0,0,1-.31-4.55V.48h5.27a1.73,1.73,0,0,1,1.2.41,1.54,1.54,0,0,1,.44,1.17Z"></path><path class="cls-4" d="M237.34,50.42q-7.72,0-11.18-4.38t-3.45-13.89q0-9.43,3.45-13.81T237.34,14c5.16,0,8.88,1.46,11.19,4.38S252,25.86,252,32.15s-1.15,11-3.45,13.89S242.5,50.42,237.34,50.42ZM245,32.15a35.16,35.16,0,0,0-.44-6.15,11.1,11.1,0,0,0-1.37-3.94A5.1,5.1,0,0,0,240.8,20a9.94,9.94,0,0,0-6.91,0,5.1,5.1,0,0,0-2.39,2.08A10.91,10.91,0,0,0,230.13,26a35,35,0,0,0-.45,6.15,36.17,36.17,0,0,0,.45,6.26,11,11,0,0,0,1.37,4,4.92,4.92,0,0,0,2.39,2,10.58,10.58,0,0,0,6.91,0,4.92,4.92,0,0,0,2.39-2,11.14,11.14,0,0,0,1.37-4A36.29,36.29,0,0,0,245,32.15Z"></path><path class="cls-4" d="M264.36.48a1.78,1.78,0,0,1,2.05,2V16.83a19.71,19.71,0,0,1,3.73-2,13.41,13.41,0,0,1,5.17-.89A12.28,12.28,0,0,1,280.54,15a9.69,9.69,0,0,1,3.86,3.28A16.33,16.33,0,0,1,286.8,24a36.78,36.78,0,0,1,.82,8.35,34.11,34.11,0,0,1-.86,8.24,13.73,13.73,0,0,1-2.7,5.58,10.47,10.47,0,0,1-4.75,3.18,21.66,21.66,0,0,1-6.94,1,30.65,30.65,0,0,1-6.88-.69,30.23,30.23,0,0,1-4.48-1.3,2.39,2.39,0,0,1-1.16-.85,2.62,2.62,0,0,1-.34-1.47V.48Zm2.05,43.78c.92.23,1.83.41,2.74.55a22.45,22.45,0,0,0,3.15.2,12.71,12.71,0,0,0,3.69-.48,4.85,4.85,0,0,0,2.6-1.88,10,10,0,0,0,1.54-3.86,32.84,32.84,0,0,0,.51-6.43,36.29,36.29,0,0,0-.44-6.16,11.32,11.32,0,0,0-1.37-3.93,5.51,5.51,0,0,0-2.29-2.12,7.54,7.54,0,0,0-3.29-.65,10.48,10.48,0,0,0-3.86.65,12.64,12.64,0,0,0-3,1.61Z"></path><path class="cls-4" d="M304,50.21c-3.56,0-6.2-1-7.94-2.94s-2.6-4.67-2.6-8.14a12.51,12.51,0,0,1,1-5.34,8.3,8.3,0,0,1,2.8-3.38,11.46,11.46,0,0,1,4.28-1.78,26.21,26.21,0,0,1,5.33-.51h7.05V25.79q0-3.55-1.85-4.86c-1.23-.86-3.33-1.3-6.29-1.3a43.78,43.78,0,0,0-5.41.31,30.34,30.34,0,0,1-3.14.31,1.6,1.6,0,0,1-1.27-.44,1.71,1.71,0,0,1-.38-1.13V15.74A37.06,37.06,0,0,1,301,14.5a40.19,40.19,0,0,1,6.15-.47,21.08,21.08,0,0,1,6.5.85,10.41,10.41,0,0,1,4.18,2.43A8.85,8.85,0,0,1,320,21.14a18.11,18.11,0,0,1,.65,5V49.6h-4.17c-.78,0-1.26-.18-1.44-.52a4.38,4.38,0,0,1-.41-1.19l-.28-2.06a19.09,19.09,0,0,1-4.27,3.05A12.87,12.87,0,0,1,304,50.21ZM306.64,33a11.07,11.07,0,0,0-3.42.45,5.34,5.34,0,0,0-2.16,1.23A4.19,4.19,0,0,0,300,36.53a8.64,8.64,0,0,0-.31,2.39q0,3.15,1.5,4.59a6.43,6.43,0,0,0,4.59,1.43,9.88,9.88,0,0,0,4.72-1.06,15.48,15.48,0,0,0,3.42-2.42V33Z"></path><path class="cls-4" d="M335.77,41.52a3.29,3.29,0,0,0,.62,2.4,3.57,3.57,0,0,0,2.19.61,4.37,4.37,0,0,1,1.64.35c.36.18.55.61.55,1.3v3.14a14,14,0,0,1-2.26.51A16.64,16.64,0,0,1,336,50a8.2,8.2,0,0,1-3.49-.65,5.29,5.29,0,0,1-2.19-2,8.59,8.59,0,0,1-1.13-3.25,30.32,30.32,0,0,1-.3-4.55V.48h5.26a1.73,1.73,0,0,1,1.2.41,1.5,1.5,0,0,1,.44,1.17Z"></path><path class="cls-4" d="M96.86,61.3H81.08V74.46H94.94a.66.66,0,0,1,.74.74V77H81.08V90.34H96.72a.66.66,0,0,1,.74.74v1.83H79a.66.66,0,0,1-.74-.74V58.73h17.9a.65.65,0,0,1,.74.74Z"></path><path class="cls-4" d="M119.1,92.91a.65.65,0,0,1-.73-.74l-.1-2a13,13,0,0,1-3,2.2,9.78,9.78,0,0,1-4.71,1,8.35,8.35,0,0,1-4.19-1,7.27,7.27,0,0,1-2.68-2.66,11.58,11.58,0,0,1-1.41-4.07,32.29,32.29,0,0,1-.39-5.23q0-7,2.56-10t7.45-3a12.06,12.06,0,0,1,4,.54c1,.36,1.78.68,2.34.94V57.5h2a.66.66,0,0,1,.74.74V92.91Zm-.93-21.6a17.25,17.25,0,0,0-2.69-1,12.34,12.34,0,0,0-3.28-.39,9.52,9.52,0,0,0-3.45.56,5.2,5.2,0,0,0-2.34,1.83,8.27,8.27,0,0,0-1.33,3.25,24,24,0,0,0-.42,4.86q0,5.28,1.33,7.92T111,91a8.22,8.22,0,0,0,2.41-.32,9.54,9.54,0,0,0,2-.81A9.27,9.27,0,0,0,117,88.76a13.22,13.22,0,0,0,1.19-1.13Z"></path><path class="cls-4" d="M143.52,90.19a14.48,14.48,0,0,1-1.31,1.14,10.2,10.2,0,0,1-1.8,1.08,11.28,11.28,0,0,1-2.32.79,12.29,12.29,0,0,1-2.81.3,7.86,7.86,0,0,1-5.72-2c-1.41-1.36-2.12-3.56-2.12-6.58V68.1h2a.66.66,0,0,1,.74.74V84.77q0,3.41,1.55,4.86a5.79,5.79,0,0,0,4.12,1.45,9,9,0,0,0,2.49-.32,10.34,10.34,0,0,0,3.82-2,12,12,0,0,0,1.24-1.16V68.1h2a.66.66,0,0,1,.74.74V92.91h-1.83a.66.66,0,0,1-.74-.74Z"></path><path class="cls-4" d="M168.17,92.41a14.78,14.78,0,0,1-2.93.67,24,24,0,0,1-3.43.27,10.21,10.21,0,0,1-4.56-.91,7.43,7.43,0,0,1-3-2.59,11.17,11.17,0,0,1-1.58-4,26.79,26.79,0,0,1-.47-5.2q0-6.9,2.42-9.94t7.15-3c.49,0,1,0,1.6.07s1.12.11,1.63.17,1,.14,1.38.23a3.59,3.59,0,0,1,.91.27.89.89,0,0,1,.64.89v1.38c-1.05-.17-2-.31-3-.42a22.29,22.29,0,0,0-2.83-.18,8.66,8.66,0,0,0-3.11.52,5,5,0,0,0-2.22,1.7,8.2,8.2,0,0,0-1.33,3.18,23.12,23.12,0,0,0-.45,5,22.46,22.46,0,0,0,.52,5.3A8.33,8.33,0,0,0,157,88.94a4.62,4.62,0,0,0,2.26,1.57,9.65,9.65,0,0,0,2.91.42,17,17,0,0,0,3.19-.27,12.18,12.18,0,0,1,2-.27.7.7,0,0,1,.62.25.88.88,0,0,1,.17.49Z"></path><path class="cls-4" d="M188,90.19a9.11,9.11,0,0,1-1.43,1.16,11.26,11.26,0,0,1-1.85,1,13.18,13.18,0,0,1-2.17.74,9.77,9.77,0,0,1-2.44.3q-4.09,0-6-2.07a8.09,8.09,0,0,1-1.92-5.72c0-2.8.79-4.8,2.39-6s3.89-1.82,6.88-1.82h6.46V75.84a9.6,9.6,0,0,0-.35-2.76,3.62,3.62,0,0,0-1.16-1.8,5.13,5.13,0,0,0-2.12-1A14.66,14.66,0,0,0,181,70a25,25,0,0,0-4.07.3,18.18,18.18,0,0,1-2.44.3c-.52,0-.79-.28-.79-.84V68.59a22.78,22.78,0,0,1,4-.73,38.09,38.09,0,0,1,3.85-.2,13.88,13.88,0,0,1,4.48.61A6.72,6.72,0,0,1,188.81,70a6.13,6.13,0,0,1,1.4,2.61,12.88,12.88,0,0,1,.4,3.33v17h-1.83a.66.66,0,0,1-.74-.74ZM187.85,80h-6.56a9.87,9.87,0,0,0-3.21.44,5.11,5.11,0,0,0-2,1.21,4.18,4.18,0,0,0-1,1.77,7.4,7.4,0,0,0-.3,2.1c0,2,.51,3.43,1.53,4.26a6.23,6.23,0,0,0,4.09,1.26A8.63,8.63,0,0,0,184.72,90a15.29,15.29,0,0,0,3.13-2.34Z"></path><path class="cls-4" d="M206.49,90.79a1.05,1.05,0,0,1,.79.22.76.76,0,0,1,.19.52v1.33a17.19,17.19,0,0,1-3.5.39,8.4,8.4,0,0,1-2.71-.37,4.27,4.27,0,0,1-1.73-1,3.9,3.9,0,0,1-.91-1.58,7.06,7.06,0,0,1-.27-2V70.47h-2.22a.66.66,0,0,1-.74-.74V68.1h3V61.44h2a.65.65,0,0,1,.74.74V68.1h5.62a.65.65,0,0,1,.74.74v1.63h-6.36V87.93a6.91,6.91,0,0,0,.1,1.2,1.85,1.85,0,0,0,.47.92,2.31,2.31,0,0,0,1.09.59,7.65,7.65,0,0,0,1.94.19c.36,0,.71,0,1,0S206.32,90.79,206.49,90.79Z"></path><path class="cls-4" d="M214.33,63.27a2.22,2.22,0,0,1-1.53-.45,2.78,2.78,0,0,1,0-3.15,2.83,2.83,0,0,1,3.06,0,2.78,2.78,0,0,1,0,3.15A2.22,2.22,0,0,1,214.33,63.27ZM212.9,68.1h2a.66.66,0,0,1,.74.74V92.91h-2a.66.66,0,0,1-.74-.74Z"></path><path class="cls-4" d="M231.88,67.51c3.56,0,6.12,1.06,7.7,3.18S242,76.07,242,80.48s-.79,7.72-2.37,9.84-4.14,3.18-7.7,3.18-6.11-1.06-7.69-3.18-2.37-5.4-2.37-9.84.79-7.67,2.37-9.79S228.33,67.51,231.88,67.51Zm0,23.57a8.22,8.22,0,0,0,3.19-.57,5.17,5.17,0,0,0,2.26-1.82,8.77,8.77,0,0,0,1.36-3.28,23.15,23.15,0,0,0,.44-4.93,22.82,22.82,0,0,0-.44-4.91,8.75,8.75,0,0,0-1.36-3.25,5.26,5.26,0,0,0-2.26-1.83,9.34,9.34,0,0,0-6.37,0,5.26,5.26,0,0,0-2.26,1.83,8.75,8.75,0,0,0-1.36,3.25,22.82,22.82,0,0,0-.44,4.91,23.15,23.15,0,0,0,.44,4.93,8.77,8.77,0,0,0,1.36,3.28,5.17,5.17,0,0,0,2.26,1.82A8.21,8.21,0,0,0,231.88,91.08Z"></path><path class="cls-4" d="M250.67,70.81A9.38,9.38,0,0,1,252,69.68a10,10,0,0,1,1.83-1.06,13.4,13.4,0,0,1,2.32-.79,11.73,11.73,0,0,1,2.81-.32,7.86,7.86,0,0,1,5.72,2q2.12,2,2.12,6.58V92.91h-2a.65.65,0,0,1-.74-.74V76.24q0-3.4-1.56-4.86a5.75,5.75,0,0,0-4.11-1.45,9,9,0,0,0-2.49.32,10.06,10.06,0,0,0-2.12.83A10.59,10.59,0,0,0,252,72.22a12.94,12.94,0,0,0-1.23,1.16V92.91h-2a.66.66,0,0,1-.74-.74V68.1h1.82a.65.65,0,0,1,.74.74Z"></path><path class="cls-4" d="M286.92,90.34h14.15a.66.66,0,0,1,.74.74v1.83h-17a.65.65,0,0,1-.74-.74V58.73h2.12a.66.66,0,0,1,.74.74Z"></path><path class="cls-4" d="M314.68,90.79a1,1,0,0,1,.79.22.77.77,0,0,1,.2.52v1.33a17.27,17.27,0,0,1-3.5.39,8.47,8.47,0,0,1-2.72-.37,4.23,4.23,0,0,1-1.72-1,3.79,3.79,0,0,1-.91-1.58,7.06,7.06,0,0,1-.27-2V70.47h-2.22a.65.65,0,0,1-.74-.74V68.1h3V61.44h2a.66.66,0,0,1,.74.74V68.1h5.62a.66.66,0,0,1,.74.74v1.63h-6.36V87.93a6,6,0,0,0,.1,1.2,1.83,1.83,0,0,0,.46.92,2.31,2.31,0,0,0,1.09.59,7.68,7.68,0,0,0,2,.19c.36,0,.7,0,1,0S314.52,90.79,314.68,90.79Z"></path><path class="cls-4" d="M336.87,92.91a.66.66,0,0,1-.74-.74l-.09-2a13,13,0,0,1-3,2.2,9.78,9.78,0,0,1-4.71,1,8.35,8.35,0,0,1-4.19-1,7.38,7.38,0,0,1-2.69-2.66,11.78,11.78,0,0,1-1.4-4.07,31.15,31.15,0,0,1-.4-5.23q0-7,2.57-10t7.44-3a12,12,0,0,1,4,.54c1,.36,1.79.68,2.35.94V57.5h2a.66.66,0,0,1,.74.74V92.91Zm-.93-21.6a17.25,17.25,0,0,0-2.69-1,12.34,12.34,0,0,0-3.28-.39,9.52,9.52,0,0,0-3.45.56,5.15,5.15,0,0,0-2.34,1.83,8.43,8.43,0,0,0-1.34,3.25,24,24,0,0,0-.42,4.86q0,5.28,1.34,7.92t5,2.63a8.27,8.27,0,0,0,2.41-.32,9.54,9.54,0,0,0,2-.81,9.27,9.27,0,0,0,1.57-1.09,13.22,13.22,0,0,0,1.19-1.13Z"></path></g></g></svg> 