<svg id="Layer_1" data-name="Layer 1" xmlns="http://www.w3.org/2000/svg" viewBox="0 0 205.94 30"><defs><style>.cls-1{fill:#262261;}.cls-2{fill:#dc3545;}</style></defs><g id="MAcY5F.tif"><path class="cls-1" d="M38.84,21.62l2.94-1.55A17.89,17.89,0,0,0,43,21.55a5.33,5.33,0,0,0,3.44,1.53,4.66,4.66,0,0,0,1.08.17,11.3,11.3,0,0,0,3.24-.69,17.52,17.52,0,0,0,3.7-2.46,25.79,25.79,0,0,0,5.28-6.45c.71-1.19,1.44-2.37,2.08-3.6s1.09-2.31,1.59-3.48a.66.66,0,0,1,.69-.46h3.56c1.11,2.13,2,4.4,3,6.58s2,4.37,2.94,6.56,2,4.42,3,6.73H72.52l-1.64-3.71H60.42L58.77,25.9h-4a1.31,1.31,0,0,1,.6-1,17.63,17.63,0,0,0,4.68-4.14c.54-.69,1.15-1.33,1.74-2,1.18.08,2.42,0,3.66,0h3.85l-3.59-8.21c-.15.1-.27.13-.3.19-.37.84-.71,1.68-1.09,2.51a16.9,16.9,0,0,1-.82,1.51c-.72,1.18-1.39,2.4-2.21,3.51a22.83,22.83,0,0,1-3.92,4.36,20.68,20.68,0,0,1-3.12,2.24,14.81,14.81,0,0,1-4.06,1.46,15.72,15.72,0,0,1-4.05.16,8.87,8.87,0,0,1-4.67-1.43A6.46,6.46,0,0,1,38.84,21.62Z" transform="translate(-1 -1)"/><path class="cls-1" d="M86.55,20.18h-.79l-6.14-8.35c-.1.14-.22.21-.22.29,0,.6.1,1.21.1,1.81q0,5.46,0,10.93v.51c0,.66-.1.73-.79.75H77.25c-.53-1.14-1-2.23-1.53-3.33a1.5,1.5,0,0,1-.07-.6V6.46a1.25,1.25,0,0,1,0-.26,8.48,8.48,0,0,1,2.08-.08c.71,0,1.43,0,2.2,0l6.26,8.59,6.08-8.37a11.71,11.71,0,0,0,4.34,7.72V26a8,8,0,0,1-1.82.08H93c0-1.24,0-2.42,0-3.6s0-2.45,0-3.68V11.55Z" transform="translate(-1 -1)"/><path class="cls-1" d="M98,21.62l3.12-1.57a4.79,4.79,0,0,1,.3.6,3.41,3.41,0,0,0,1.8,1.73,6,6,0,0,0,2.5.73,11,11,0,0,0,2.07,0,5.24,5.24,0,0,0,2.36-.81,2.37,2.37,0,0,0,0-4.05,4.51,4.51,0,0,0-2-.69,25.36,25.36,0,0,1-6.56-1.47,16,16,0,0,1-5.12-3A10.77,10.77,0,0,1,93,7a4,4,0,0,1,0-.78,5.46,5.46,0,0,1,.68-.08c.85,0,1.7,0,2.55,0,.49,0,.57.11.64.6a6.08,6.08,0,0,0,2,3.75,12,12,0,0,0,2.7,1.95,14.9,14.9,0,0,0,4,1.25c1.29.23,2.59.37,3.87.63a7.32,7.32,0,0,1,4.25,2.18,4.17,4.17,0,0,1,1.17,2.93,13.66,13.66,0,0,1-.15,2.31c-.4,2.11-1.82,3.28-3.74,4a12.19,12.19,0,0,1-5.57.75A11.28,11.28,0,0,1,102,25.8,7.14,7.14,0,0,1,98,21.62Z" transform="translate(-1 -1)"/><path class="cls-1" d="M55.23,9.35l-2.92,1.48-.9-.81a4.94,4.94,0,0,0-2.63-1.18,6.45,6.45,0,0,0-4,.38,2.16,2.16,0,0,0-1.25,2.93,2.13,2.13,0,0,0,1.36,1.1,13.13,13.13,0,0,0,3.05.63,15.2,15.2,0,0,1,5,1.35A4.73,4.73,0,0,1,55.46,18a19.44,19.44,0,0,1-3.4,3.05,8,8,0,0,0,0-1.21,2.65,2.65,0,0,0-2.11-2.08,35.24,35.24,0,0,0-3.67-.65,10.8,10.8,0,0,1-4.44-1.53,4.82,4.82,0,0,1-2.16-4,4.84,4.84,0,0,1,1.92-4.35,7.94,7.94,0,0,1,3.28-1.51,14.24,14.24,0,0,1,4.83,0,8.47,8.47,0,0,1,3.7,1.49A7.76,7.76,0,0,1,55.23,9.35Z" transform="translate(-1 -1)"/><path class="cls-1" d="M114.3,9.45l-2.85,1.4c-.46-.38-.91-.72-1.34-1.09a4.41,4.41,0,0,0-2.22-.9,6.73,6.73,0,0,0-3.89.33,2,2,0,0,0-1.41,2.22c0,.23,0,.47,0,.77A9.4,9.4,0,0,1,99.16,10a1.81,1.81,0,0,1,.34-1.37,6.83,6.83,0,0,1,4.55-2.9,12.08,12.08,0,0,1,4.15-.18,7.47,7.47,0,0,1,6,3.49A2.31,2.31,0,0,1,114.3,9.45Z" transform="translate(-1 -1)"/></g><g id="zdtb1g.tif"><path class="cls-2" d="M15.78,29.5a14.27,14.27,0,0,0,6.55-1.58,12.68,12.68,0,0,0,3.32-2.49,13.11,13.11,0,0,0,2.82-4.24,16.05,16.05,0,0,0,.9-3.09c.09-.5.1-1,.16-1.5s.3-.66.87-.61.63.27.62.73a13.37,13.37,0,0,1-1,4.87,15,15,0,0,1-9.31,8.69,12.31,12.31,0,0,1-3.9.69,16.29,16.29,0,0,1-2.21,0,21.48,21.48,0,0,1-2.87-.59,13.69,13.69,0,0,1-3.83-1.75A14.31,14.31,0,0,1,4,25,15.12,15.12,0,0,1,1.45,12.3,15.17,15.17,0,0,1,3.32,8a14.82,14.82,0,0,1,2-2.52,13.12,13.12,0,0,1,4-2.89,20.43,20.43,0,0,1,3.17-1.16A18,18,0,0,1,15.33,1a.59.59,0,0,1,.7.62c0,.55-.15.82-.63.87a16.39,16.39,0,0,0-3.26.58A13.66,13.66,0,0,0,7.53,5.52,14.25,14.25,0,0,0,5.34,7.79,12.85,12.85,0,0,0,3,12.44a12.32,12.32,0,0,0-.49,3.72A14.17,14.17,0,0,0,3.6,21.21,13.33,13.33,0,0,0,6.38,25.4a13.56,13.56,0,0,0,7.16,3.84C14.41,29.4,15.29,29.44,15.78,29.5Z" transform="translate(-1 -1)"/><path class="cls-2" d="M26.51,15.91A10.8,10.8,0,0,0,24.6,10a10.26,10.26,0,0,0-5.55-4,14.43,14.43,0,0,0-2.18-.4c-.62-.09-.87-.32-.84-.9A.61.61,0,0,1,16.7,4a10.86,10.86,0,0,1,4.33,1,12,12,0,0,1,6.64,8A13.19,13.19,0,0,1,28,16a11.33,11.33,0,0,1-1.71,6.22,11.7,11.7,0,0,1-5.64,4.84,11.66,11.66,0,0,1-4,.92,11.86,11.86,0,0,1-8.07-2.62,11.49,11.49,0,0,1-4.16-6.55,14.55,14.55,0,0,1-.3-2.1A.61.61,0,0,1,4.68,16c.55-.05.81.12.89.6s.17,1.24.31,1.84A10.17,10.17,0,0,0,9,23.72a10.12,10.12,0,0,0,5.78,2.64A10,10,0,0,0,21.36,25a10.34,10.34,0,0,0,5.06-7.81C26.47,16.73,26.48,16.31,26.51,15.91Z" transform="translate(-1 -1)"/><path class="cls-2" d="M25.11,16.11a8.18,8.18,0,0,1-1,4.07,8.94,8.94,0,0,1-3.45,3.61,9.91,9.91,0,0,1-3,1.14,6.12,6.12,0,0,1-1,.09.67.67,0,0,1-.68-.6c-.08-.56.06-.89.47-1s.89-.14,1.33-.25A7.56,7.56,0,0,0,23.19,18a7.94,7.94,0,0,0,.26-2.07,6.7,6.7,0,0,0-1.14-3.83,7.41,7.41,0,0,0-12.07-.69,7.27,7.27,0,0,0-1.44,3c-.08.34-.14.69-.22,1S8.4,16,8.06,16a.88.88,0,0,1-1-.42.5.5,0,0,1,0-.21,8.43,8.43,0,0,1,.95-3.56A9.35,9.35,0,0,1,11.3,8.24a9.11,9.11,0,0,1,4.14-1.3,8.51,8.51,0,0,1,4.8,1A9.12,9.12,0,0,1,25,14.32,17.5,17.5,0,0,1,25.11,16.11Z" transform="translate(-1 -1)"/><path class="cls-2" d="M16,10a5.93,5.93,0,0,1,5.72,4.07A6.66,6.66,0,0,1,22,15.14a.72.72,0,0,1-.57.9c-.55.1-.93-.1-1-.62a4.81,4.81,0,0,0-1-2.23A3.36,3.36,0,0,0,18,12.07c-.32-.1-.61-.27-.92-.37a4.45,4.45,0,0,0-5.43,4.24,4.3,4.3,0,0,0,.46,1.92,4.4,4.4,0,0,0,1.69,1.88,7.51,7.51,0,0,0,1.24.51,4.05,4.05,0,0,0,.47.12.77.77,0,0,1,.61,1,.74.74,0,0,1-.92.6,5.88,5.88,0,0,1-4.65-3.57,5.82,5.82,0,0,1,.22-5.31A6,6,0,0,1,15,10h1Z" transform="translate(-1 -1)"/></g><path class="cls-2" d="M136.31,20.65h-9.59l-2.17,5.92h-1.87l8-21.12h1.7l8,21.12H138.5Zm-9-1.53h8.48l-4.24-11.5Z" transform="translate(-1 -1)"/><path class="cls-2" d="M145.25,18v8.61h-1.79V5.45h7.2a9.2,9.2,0,0,1,3.06.46A6.19,6.19,0,0,1,156,7.21a5.39,5.39,0,0,1,1.36,2,7.06,7.06,0,0,1,.45,2.56,7.11,7.11,0,0,1-.45,2.61,5.18,5.18,0,0,1-1.35,2,5.92,5.92,0,0,1-2.23,1.22,10.22,10.22,0,0,1-3.07.42Zm0-1.5h5.41a7.3,7.3,0,0,0,2.42-.36,4.33,4.33,0,0,0,1.65-1,3.92,3.92,0,0,0,1-1.48,5.56,5.56,0,0,0,.3-1.85,5.63,5.63,0,0,0-.3-1.84,4.15,4.15,0,0,0-1-1.54,4.42,4.42,0,0,0-1.65-1.05A7,7,0,0,0,150.66,7h-5.41Z" transform="translate(-1 -1)"/><path class="cls-2" d="M163.54,18v8.61h-1.79V5.45H169a9.2,9.2,0,0,1,3.06.46,6.19,6.19,0,0,1,2.23,1.3,5.39,5.39,0,0,1,1.36,2,7.06,7.06,0,0,1,.45,2.56,7.11,7.11,0,0,1-.45,2.61,5.18,5.18,0,0,1-1.35,2A5.92,5.92,0,0,1,172,17.54,10.22,10.22,0,0,1,169,18Zm0-1.5H169a7.3,7.3,0,0,0,2.42-.36,4.33,4.33,0,0,0,1.65-1,3.92,3.92,0,0,0,.95-1.48,5.56,5.56,0,0,0,.3-1.85,5.63,5.63,0,0,0-.3-1.84A4.15,4.15,0,0,0,173,8.4a4.42,4.42,0,0,0-1.65-1.05A7,7,0,0,0,169,7h-5.41Z" transform="translate(-1 -1)"/><path class="cls-2" d="M181.84,25.06h10.43v1.51H180V5.45h1.8Z" transform="translate(-1 -1)"/><path class="cls-2" d="M198.42,17l6.46-11.51h2.06l-7.63,13.17v8h-1.79V18.62L189.91,5.45H192Z" transform="translate(-1 -1)"/></svg>